# xmcd
#
# Track frame offsets:
#	150
#	18482
#	42132
#	59427
#	79412
#	102927
#	114222
#	133050
#	152422
#	170967
#	192057
#	210237
#
# Disc length: 3053 seconds
#
# Revision: 0
# Processed by: cddbd v1.5.2PL0 Copyright (c) Steve Scherf et al.
# Submitted via: EasyCDDAExtractor 2010.4.0.0
#
DISCID=990beb0c
DTITLE=ดนตรีพื้นเมืองเหนือ - น้อยใจยา
DYEAR=1999
DGENRE=Easy Listening
TTITLE0=น้อยใจยา
TTITLE1=สาวไหม
TTITLE2=กุหลาบเชียงใหม่
TTITLE3=จ้อย
TTITLE4=เชียงแสน
TTITLE5=หะริพูนชัย
TTITLE6=ล่องแม่ปิง
TTITLE7=แม่ฮ่องสอน
TTITLE8=สร้อยลำปาง
TTITLE9=ลำปางหลวง
TTITLE10=ซอลำปาง
TTITLE11=ลอเลื่อน
EXTD=
EXTT0=
EXTT1=
EXTT2=
EXTT3=
EXTT4=
EXTT5=
EXTT6=
EXTT7=
EXTT8=
EXTT9=
EXTT10=
EXTT11=
PLAYORDER=
